<?xml version="1.0" encoding="iso-8859-1"?>
<!-- Generator: Adobe Illustrator 16.0.0, SVG Export Plug-In . SVG Version: 6.00 Build 0)  -->
<!DOCTYPE svg PUBLIC "-//W3C//DTD SVG 1.1//EN" "http://www.w3.org/Graphics/SVG/1.1/DTD/svg11.dtd">
<svg version="1.1" id="Capa_1" xmlns="http://www.w3.org/2000/svg" xmlns:xlink="http://www.w3.org/1999/xlink" x="0px" y="0px"
	 width="30" height="30" viewBox="0 0 478.125 478.125" style="enable-background:new 0 0 478.125 478.125;"
	 xml:space="preserve" fill="#646464">
<g>
	<path d="M439.875,86.062H38.25C17.212,86.062,0,103.275,0,124.312v229.5c0,21.037,17.212,38.25,38.25,38.25h401.625
		c21.037,0,38.25-17.213,38.25-38.25v-229.5C478.125,103.275,460.912,86.062,439.875,86.062z M430.312,105.188l-191.25,166.388
		L47.812,105.188H430.312z M24.862,367.2c-3.825-3.825-5.737-7.65-5.737-13.388v-229.5c0-5.737,1.913-9.562,5.737-13.388
		l147.263,128.138L24.862,367.2z M47.812,372.938L187.425,252.45l51.638,43.987L290.7,252.45l139.612,120.487H47.812z M459,353.812
		c0,5.737-1.912,9.562-5.737,13.388L306,239.062l147.263-128.138c3.825,3.825,5.737,7.65,5.737,13.388V353.812z"/>
</g>
<g>
</g>
<g>
</g>
<g>
</g>
<g>
</g>
<g>
</g>
<g>
</g>
<g>
</g>
<g>
</g>
<g>
</g>
<g>
</g>
<g>
</g>
<g>
</g>
<g>
</g>
<g>
</g>
<g>
</g>
</svg>
